STARTFONT 2.1
COMMENT
COMMENT Converted from OpenType font "Q:\font stuff\winfont\Curveless.ttf" by "otf2bdf 3.0".
COMMENT
FONT -FreeType-Curveless-Medium-R-Normal--38-380-72-72-P-113-ISO10646-1
SIZE 38 72 72
FONTBOUNDINGBOX 29 49 0 -16
STARTPROPERTIES 19
FOUNDRY "FreeType"
FAMILY_NAME "Curveless"
WEIGHT_NAME "Medium"
SLANT "R"
SETWIDTH_NAME "Normal"
ADD_STYLE_NAME ""
PIXEL_SIZE 38
POINT_SIZE 380
RESOLUTION_X 72
RESOLUTION_Y 72
SPACING "P"
AVERAGE_WIDTH 113
CHARSET_REGISTRY "ISO10646"
CHARSET_ENCODING "1"
FONT_ASCENT 31
FONT_DESCENT 7
COPYRIGHT "© 2012 Peter Philip Crisci. All Rights Reserved."
_OTF_FONTFILE "Q:\font stuff\winfont\Curveless.ttf"
_OTF_PSNAME "Curveless"
ENDPROPERTIES
CHARS 124
STARTCHAR 0020
ENCODING 32
SWIDTH 421 0
DWIDTH 16 0
BBX 0 0 0 0
BITMAP
ENDCHAR
STARTCHAR 0021
ENCODING 33
SWIDTH 184 0
DWIDTH 7 0
BBX 3 33 2 0
BITMAP
E0
E0
E0
E0
E0
E0
E0
E0
E0
E0
E0
E0
E0
E0
E0
E0
E0
E0
E0
E0
E0
E0
E0
E0
E0
E0
E0
00
00
00
E0
E0
E0
ENDCHAR
STARTCHAR 0022
ENCODING 34
SWIDTH 342 0
DWIDTH 13 0
BBX 9 9 2 23
BITMAP
E380
E380
E380
E380
E380
E380
E380
E380
E380
ENDCHAR
STARTCHAR 0023
ENCODING 35
SWIDTH 421 0
DWIDTH 16 0
BBX 12 18 2 8
BITMAP
71C0
71C0
71C0
FFF0
FFF0
FFF0
71C0
71C0
71C0
71C0
71C0
71C0
FFF0
FFF0
FFF0
71C0
71C0
71C0
ENDCHAR
STARTCHAR 0024
ENCODING 36
SWIDTH 421 0
DWIDTH 16 0
BBX 12 33 2 0
BITMAP
0E00
0E00
0E00
FFF0
FFF0
FFF0
E000
E000
E000
E000
E000
E000
E000
E000
E000
FFF0
FFF0
FFF0
0070
0070
0070
0070
0070
0070
0070
0070
0070
FFF0
FFF0
FFF0
0E00
0E00
0E00
ENDCHAR
STARTCHAR 0025
ENCODING 37
SWIDTH 789 0
DWIDTH 30 0
BBX 27 33 2 0
BITMAP
FF8E0000
FF8E0000
FF8E0000
E38E0000
E38E0000
E38E0000
FF8E0000
FF8E0000
FF8E0000
000E0000
000E0000
000E0000
000E0000
000E0000
000E0000
000E0000
000E0000
000E0000
000E0000
000E0000
000E0000
000E0000
000E0000
000E0000
000E3FE0
000E3FE0
000E3FE0
000E38E0
000E38E0
000E38E0
000E3FE0
000E3FE0
000E3FE0
ENDCHAR
STARTCHAR 0026
ENCODING 38
SWIDTH 421 0
DWIDTH 16 0
BBX 12 12 2 11
BITMAP
0E00
0E00
0E00
0E00
FFF0
FFF0
FFF0
0E00
0E00
0E00
0E00
0E00
ENDCHAR
STARTCHAR 0027
ENCODING 39
SWIDTH 184 0
DWIDTH 7 0
BBX 3 9 2 23
BITMAP
E0
E0
E0
E0
E0
E0
E0
E0
E0
ENDCHAR
STARTCHAR 0028
ENCODING 40
SWIDTH 342 0
DWIDTH 13 0
BBX 9 33 2 0
BITMAP
1F80
1F80
1F80
1C00
1C00
1C00
1C00
1C00
1C00
1C00
1C00
1C00
1C00
1C00
FC00
FC00
FC00
FC00
1C00
1C00
1C00
1C00
1C00
1C00
1C00
1C00
1C00
1C00
1C00
1C00
1F80
1F80
1F80
ENDCHAR
STARTCHAR 0029
ENCODING 41
SWIDTH 342 0
DWIDTH 13 0
BBX 9 33 2 0
BITMAP
FC00
FC00
FC00
1C00
1C00
1C00
1C00
1C00
1C00
1C00
1C00
1C00
1C00
1C00
1F80
1F80
1F80
1F80
1C00
1C00
1C00
1C00
1C00
1C00
1C00
1C00
1C00
1C00
1C00
1C00
FC00
FC00
FC00
ENDCHAR
STARTCHAR 002A
ENCODING 42
SWIDTH 421 0
DWIDTH 16 0
BBX 12 12 2 20
BITMAP
7FC0
7FC0
7FC0
0E00
0E00
FFF0
FFF0
FFF0
0E00
7FC0
7FC0
7FC0
ENDCHAR
STARTCHAR 002B
ENCODING 43
SWIDTH 421 0
DWIDTH 16 0
BBX 12 12 2 11
BITMAP
0E00
0E00
0E00
0E00
FFF0
FFF0
FFF0
0E00
0E00
0E00
0E00
0E00
ENDCHAR
STARTCHAR 002C
ENCODING 44
SWIDTH 184 0
DWIDTH 7 0
BBX 3 9 2 -6
BITMAP
E0
E0
E0
E0
E0
E0
E0
E0
E0
ENDCHAR
STARTCHAR 002D
ENCODING 45
SWIDTH 263 0
DWIDTH 10 0
BBX 6 3 2 14
BITMAP
FC
FC
FC
ENDCHAR
STARTCHAR 002E
ENCODING 46
SWIDTH 184 0
DWIDTH 7 0
BBX 3 3 2 0
BITMAP
E0
E0
E0
ENDCHAR
STARTCHAR 002F
ENCODING 47
SWIDTH 421 0
DWIDTH 16 0
BBX 12 33 2 0
BITMAP
0FF0
0FF0
0FF0
0E00
0E00
0E00
0E00
0E00
0E00
0E00
0E00
0E00
0E00
0E00
0E00
0E00
0E00
0E00
0E00
0E00
0E00
0E00
0E00
0E00
0E00
0E00
0E00
0E00
0E00
0E00
FE00
FE00
FE00
ENDCHAR
STARTCHAR 0030
ENCODING 48
SWIDTH 421 0
DWIDTH 16 0
BBX 12 33 2 0
BITMAP
FFF0
FFF0
FFF0
E070
E070
E070
E070
E070
E070
E070
E070
E070
E070
E070
E070
E070
E070
E070
E070
E070
E070
E070
E070
E070
E070
E070
E070
E070
E070
E070
FFF0
FFF0
FFF0
ENDCHAR
STARTCHAR 0031
ENCODING 49
SWIDTH 421 0
DWIDTH 16 0
BBX 12 33 2 0
BITMAP
FE00
FE00
FE00
0E00
0E00
0E00
0E00
0E00
0E00
0E00
0E00
0E00
0E00
0E00
0E00
0E00
0E00
0E00
0E00
0E00
0E00
0E00
0E00
0E00
0E00
0E00
0E00
0E00
0E00
0E00
FFF0
FFF0
FFF0
ENDCHAR
STARTCHAR 0032
ENCODING 50
SWIDTH 421 0
DWIDTH 16 0
BBX 12 33 2 0
BITMAP
FFF0
FFF0
FFF0
E070
E070
E070
0070
0070
0070
0070
0070
0070
0070
0070
0070
FFF0
FFF0
FFF0
E000
E000
E000
E000
E000
E000
E000
E000
E000
E070
E070
E070
FFF0
FFF0
FFF0
ENDCHAR
STARTCHAR 0033
ENCODING 51
SWIDTH 421 0
DWIDTH 16 0
BBX 12 33 2 0
BITMAP
FFF0
FFF0
FFF0
0070
0070
0070
0070
0070
0070
0070
0070
0070
0070
0070
0070
FFF0
FFF0
FFF0
0070
0070
0070
0070
0070
0070
0070
0070
0070
0070
0070
0070
FFF0
FFF0
FFF0
ENDCHAR
STARTCHAR 0034
ENCODING 52
SWIDTH 421 0
DWIDTH 16 0
BBX 12 33 2 0
BITMAP
E070
E070
E070
E070
E070
E070
E070
E070
E070
E070
E070
E070
E070
E070
E070
FFF0
FFF0
FFF0
0070
0070
0070
0070
0070
0070
0070
0070
0070
0070
0070
0070
0070
0070
0070
ENDCHAR
STARTCHAR 0035
ENCODING 53
SWIDTH 421 0
DWIDTH 16 0
BBX 12 33 2 0
BITMAP
FFF0
FFF0
FFF0
E070
E070
E070
E000
E000
E000
E000
E000
E000
E000
E000
E000
FFF0
FFF0
FFF0
0070
0070
0070
0070
0070
0070
0070
0070
0070
E070
E070
E070
FFF0
FFF0
FFF0
ENDCHAR
STARTCHAR 0036
ENCODING 54
SWIDTH 421 0
DWIDTH 16 0
BBX 12 33 2 0
BITMAP
FFF0
FFF0
FFF0
E000
E000
E000
E000
E000
E000
E000
E000
E000
E000
E000
E000
FFF0
FFF0
FFF0
E070
E070
E070
E070
E070
E070
E070
E070
E070
E070
E070
E070
FFF0
FFF0
FFF0
ENDCHAR
STARTCHAR 0037
ENCODING 55
SWIDTH 421 0
DWIDTH 16 0
BBX 12 33 2 0
BITMAP
FFF0
FFF0
FFF0
0070
0070
0070
0070
0070
0070
0070
0070
0070
0070
0070
0070
0070
0070
0070
0070
0070
0070
0070
0070
0070
0070
0070
0070
0070
0070
0070
0070
0070
0070
ENDCHAR
STARTCHAR 0038
ENCODING 56
SWIDTH 421 0
DWIDTH 16 0
BBX 12 33 2 0
BITMAP
FFF0
FFF0
FFF0
E070
E070
E070
E070
E070
E070
E070
E070
E070
E070
E070
E070
FFF0
FFF0
FFF0
E070
E070
E070
E070
E070
E070
E070
E070
E070
E070
E070
E070
FFF0
FFF0
FFF0
ENDCHAR
STARTCHAR 0039
ENCODING 57
SWIDTH 421 0
DWIDTH 16 0
BBX 12 33 2 0
BITMAP
FFF0
FFF0
FFF0
E070
E070
E070
E070
E070
E070
E070
E070
E070
E070
E070
E070
FFF0
FFF0
FFF0
0070
0070
0070
0070
0070
0070
0070
0070
0070
0070
0070
0070
FFF0
FFF0
FFF0
ENDCHAR
STARTCHAR 003A
ENCODING 58
SWIDTH 184 0
DWIDTH 7 0
BBX 3 33 2 0
BITMAP
E0
E0
E0
00
00
00
00
00
00
00
00
00
00
00
00
00
00
00
00
00
00
00
00
00
00
00
00
00
00
00
E0
E0
E0
ENDCHAR
STARTCHAR 003B
ENCODING 59
SWIDTH 184 0
DWIDTH 7 0
BBX 3 39 2 -6
BITMAP
E0
E0
E0
00
00
00
00
00
00
00
00
00
00
00
00
00
00
00
00
00
00
00
00
00
00
00
00
00
00
00
E0
E0
E0
E0
E0
E0
E0
E0
E0
ENDCHAR
STARTCHAR 003C
ENCODING 60
SWIDTH 421 0
DWIDTH 16 0
BBX 12 18 2 8
BITMAP
FFF0
FFF0
FFF0
E000
E000
E000
E000
E000
E000
E000
E000
E000
E000
E000
E000
FFF0
FFF0
FFF0
ENDCHAR
STARTCHAR 003D
ENCODING 61
SWIDTH 421 0
DWIDTH 16 0
BBX 12 9 2 11
BITMAP
FFF0
FFF0
FFF0
0000
0000
0000
FFF0
FFF0
FFF0
ENDCHAR
STARTCHAR 003E
ENCODING 62
SWIDTH 421 0
DWIDTH 16 0
BBX 12 18 2 8
BITMAP
FFF0
FFF0
FFF0
0070
0070
0070
0070
0070
0070
0070
0070
0070
0070
0070
0070
FFF0
FFF0
FFF0
ENDCHAR
STARTCHAR 003F
ENCODING 63
SWIDTH 421 0
DWIDTH 16 0
BBX 12 33 2 0
BITMAP
FFF0
FFF0
FFF0
0070
0070
0070
0070
0070
0070
0070
0070
0070
0070
0070
0070
FFF0
FFF0
FFF0
E000
E000
E000
E000
E000
E000
E000
E000
E000
0000
0000
0000
E000
E000
E000
ENDCHAR
STARTCHAR 0040
ENCODING 64
SWIDTH 657 0
DWIDTH 25 0
BBX 21 24 2 5
BITMAP
FFFFF8
FFFFF8
FFFFF8
E00038
E00038
E00038
E3FE38
E3FE38
E3FE38
E38E38
E38E38
E38E38
E38E38
E38E38
E38E38
E38E38
E38E38
E38E38
E38E38
E38E38
E38E38
E3FFF8
E3FFF8
E3FFF8
ENDCHAR
STARTCHAR 0041
ENCODING 65
SWIDTH 421 0
DWIDTH 16 0
BBX 12 33 2 0
BITMAP
FFF0
FFF0
FFF0
E070
E070
E070
E070
E070
E070
E070
E070
E070
E070
E070
E070
E070
FFF0
FFF0
FFF0
E070
E070
E070
E070
E070
E070
E070
E070
E070
E070
E070
E070
E070
E070
ENDCHAR
STARTCHAR 0042
ENCODING 66
SWIDTH 421 0
DWIDTH 16 0
BBX 12 33 2 0
BITMAP
FF80
FF80
FF80
E380
E380
E380
E380
E380
E380
E380
E380
E380
E380
E380
E380
FFF0
FFF0
FFF0
E070
E070
E070
E070
E070
E070
E070
E070
E070
E070
E070
E070
FFF0
FFF0
FFF0
ENDCHAR
STARTCHAR 0043
ENCODING 67
SWIDTH 421 0
DWIDTH 16 0
BBX 12 33 2 -1
BITMAP
FFF0
FFF0
FFF0
E000
E000
E000
E000
E000
E000
E000
E000
E000
E000
E000
E000
E000
E000
E000
E000
E000
E000
E000
E000
E000
E000
E000
E000
E000
E000
E000
FFF0
FFF0
FFF0
ENDCHAR
STARTCHAR 0044
ENCODING 68
SWIDTH 421 0
DWIDTH 16 0
BBX 12 33 2 0
BITMAP
FFF0
FFF0
FFF0
1C70
1C70
1C70
1C70
1C70
1C70
1C70
1C70
1C70
1C70
1C70
1C70
1C70
1C70
1C70
1C70
1C70
1C70
1C70
1C70
1C70
1C70
1C70
1C70
1C70
1C70
1C70
FFF0
FFF0
FFF0
ENDCHAR
STARTCHAR 0045
ENCODING 69
SWIDTH 421 0
DWIDTH 16 0
BBX 12 33 2 0
BITMAP
FFF0
FFF0
FFF0
E000
E000
E000
E000
E000
E000
E000
E000
E000
E000
E000
E000
FF80
FF80
FF80
E000
E000
E000
E000
E000
E000
E000
E000
E000
E000
E000
E000
FFF0
FFF0
FFF0
ENDCHAR
STARTCHAR 0046
ENCODING 70
SWIDTH 421 0
DWIDTH 16 0
BBX 12 33 2 0
BITMAP
FFF0
FFF0
FFF0
E000
E000
E000
E000
E000
E000
E000
E000
E000
E000
E000
E000
FFF0
FFF0
FFF0
E000
E000
E000
E000
E000
E000
E000
E000
E000
E000
E000
E000
E000
E000
E000
ENDCHAR
STARTCHAR 0047
ENCODING 71
SWIDTH 421 0
DWIDTH 16 0
BBX 12 33 2 0
BITMAP
FFF0
FFF0
FFF0
E000
E000
E000
E000
E000
E000
E000
E000
E000
E000
E000
E000
E3F0
E3F0
E3F0
E070
E070
E070
E070
E070
E070
E070
E070
E070
E070
E070
E070
FFF0
FFF0
FFF0
ENDCHAR
STARTCHAR 0048
ENCODING 72
SWIDTH 421 0
DWIDTH 16 0
BBX 12 33 2 0
BITMAP
E070
E070
E070
E070
E070
E070
E070
E070
E070
E070
E070
E070
E070
E070
E070
FFF0
FFF0
FFF0
E070
E070
E070
E070
E070
E070
E070
E070
E070
E070
E070
E070
E070
E070
E070
ENDCHAR
STARTCHAR 0049
ENCODING 73
SWIDTH 421 0
DWIDTH 16 0
BBX 12 33 2 0
BITMAP
FFF0
FFF0
FFF0
0E00
0E00
0E00
0E00
0E00
0E00
0E00
0E00
0E00
0E00
0E00
0E00
0E00
0E00
0E00
0E00
0E00
0E00
0E00
0E00
0E00
0E00
0E00
0E00
0E00
0E00
0E00
FFF0
FFF0
FFF0
ENDCHAR
STARTCHAR 004A
ENCODING 74
SWIDTH 421 0
DWIDTH 16 0
BBX 12 33 2 0
BITMAP
03F0
03F0
03F0
0070
0070
0070
0070
0070
0070
0070
0070
0070
0070
0070
0070
0070
0070
0070
E070
E070
E070
E070
E070
E070
E070
E070
E070
E070
E070
E070
FFF0
FFF0
FFF0
ENDCHAR
STARTCHAR 004B
ENCODING 75
SWIDTH 421 0
DWIDTH 16 0
BBX 12 33 2 0
BITMAP
E380
E380
E380
E380
E380
E380
E380
E380
E380
E380
E380
E380
E380
E380
E380
FFF0
FFF0
FFF0
E070
E070
E070
E070
E070
E070
E070
E070
E070
E070
E070
E070
E070
E070
E070
ENDCHAR
STARTCHAR 004C
ENCODING 76
SWIDTH 421 0
DWIDTH 16 0
BBX 12 33 2 0
BITMAP
E000
E000
E000
E000
E000
E000
E000
E000
E000
E000
E000
E000
E000
E000
E000
E000
E000
E000
E000
E000
E000
E000
E000
E000
E000
E000
E000
E000
E000
E000
FFF0
FFF0
FFF0
ENDCHAR
STARTCHAR 004D
ENCODING 77
SWIDTH 421 0
DWIDTH 16 0
BBX 12 33 2 0
BITMAP
FFF0
FFF0
FFF0
EE70
EE70
EE70
EE70
EE70
EE70
EE70
EE70
EE70
EE70
EE70
EE70
E070
E070
E070
E070
E070
E070
E070
E070
E070
E070
E070
E070
E070
E070
E070
E070
E070
E070
ENDCHAR
STARTCHAR 004E
ENCODING 78
SWIDTH 421 0
DWIDTH 16 0
BBX 12 33 2 0
BITMAP
FFF0
FFF0
FFF0
E070
E070
E070
E070
E070
E070
E070
E070
E070
E070
E070
E070
E070
E070
E070
E070
E070
E070
E070
E070
E070
E070
E070
E070
E070
E070
E070
E070
E070
E070
ENDCHAR
STARTCHAR 004F
ENCODING 79
SWIDTH 421 0
DWIDTH 16 0
BBX 12 33 2 0
BITMAP
FFF0
FFF0
FFF0
E070
E070
E070
E070
E070
E070
E070
E070
E070
E070
E070
E070
E070
E070
E070
E070
E070
E070
E070
E070
E070
E070
E070
E070
E070
E070
E070
FFF0
FFF0
FFF0
ENDCHAR
STARTCHAR 0050
ENCODING 80
SWIDTH 421 0
DWIDTH 16 0
BBX 12 33 2 0
BITMAP
FFF0
FFF0
FFF0
E070
E070
E070
E070
E070
E070
E070
E070
E070
E070
E070
E070
FFF0
FFF0
FFF0
E000
E000
E000
E000
E000
E000
E000
E000
E000
E000
E000
E000
E000
E000
E000
ENDCHAR
STARTCHAR 0051
ENCODING 81
SWIDTH 421 0
DWIDTH 16 0
BBX 12 33 2 0
BITMAP
FF80
FF80
FF80
E380
E380
E380
E380
E380
E380
E380
E380
E380
E380
E380
E380
E380
E380
E380
E380
E380
E380
E380
E380
E380
E380
E380
E380
E380
E380
E380
FFF0
FFF0
FFF0
ENDCHAR
STARTCHAR 0052
ENCODING 82
SWIDTH 421 0
DWIDTH 16 0
BBX 12 33 2 0
BITMAP
FFF0
FFF0
FFF0
E070
E070
E070
E070
E070
E070
E070
E070
E070
E070
E070
E070
FFF0
FFF0
FFF0
E380
E380
E380
E380
E380
E380
E380
E380
E380
E380
E380
E380
E380
E380
E380
ENDCHAR
STARTCHAR 0053
ENCODING 83
SWIDTH 421 0
DWIDTH 16 0
BBX 12 33 2 0
BITMAP
FFF0
FFF0
FFF0
E000
E000
E000
E000
E000
E000
E000
E000
E000
E000
E000
E000
FFF0
FFF0
FFF0
0070
0070
0070
0070
0070
0070
0070
0070
0070
0070
0070
0070
FFF0
FFF0
FFF0
ENDCHAR
STARTCHAR 0054
ENCODING 84
SWIDTH 421 0
DWIDTH 16 0
BBX 12 33 2 0
BITMAP
FFF0
FFF0
FFF0
0E00
0E00
0E00
0E00
0E00
0E00
0E00
0E00
0E00
0E00
0E00
0E00
0E00
0E00
0E00
0E00
0E00
0E00
0E00
0E00
0E00
0E00
0E00
0E00
0E00
0E00
0E00
0E00
0E00
0E00
ENDCHAR
STARTCHAR 0055
ENCODING 85
SWIDTH 421 0
DWIDTH 16 0
BBX 12 33 2 0
BITMAP
E070
E070
E070
E070
E070
E070
E070
E070
E070
E070
E070
E070
E070
E070
E070
E070
E070
E070
E070
E070
E070
E070
E070
E070
E070
E070
E070
E070
E070
E070
FFF0
FFF0
FFF0
ENDCHAR
STARTCHAR 0056
ENCODING 86
SWIDTH 421 0
DWIDTH 16 0
BBX 12 33 2 0
BITMAP
E380
E380
E380
E380
E380
E380
E380
E380
E380
E380
E380
E380
E380
E380
E380
E380
E380
E380
E380
E380
E380
E380
E380
E380
E380
E380
E380
E380
E380
E380
FFF0
FFF0
FFF0
ENDCHAR
STARTCHAR 0057
ENCODING 87
SWIDTH 421 0
DWIDTH 16 0
BBX 12 33 2 0
BITMAP
EE70
EE70
EE70
EE70
EE70
EE70
EE70
EE70
EE70
EE70
EE70
EE70
EE70
EE70
EE70
EE70
EE70
EE70
EE70
EE70
EE70
EE70
EE70
EE70
EE70
EE70
EE70
EE70
EE70
EE70
FFF0
FFF0
FFF0
ENDCHAR
STARTCHAR 0058
ENCODING 88
SWIDTH 421 0
DWIDTH 16 0
BBX 12 33 2 0
BITMAP
E070
E070
E070
E070
E070
E070
E070
E070
E070
E070
E070
E070
FFF0
FFF0
FFF0
0E00
0E00
0E00
FFF0
FFF0
FFF0
E070
E070
E070
E070
E070
E070
E070
E070
E070
E070
E070
E070
ENDCHAR
STARTCHAR 0059
ENCODING 89
SWIDTH 421 0
DWIDTH 16 0
BBX 12 33 2 0
BITMAP
E070
E070
E070
E070
E070
E070
E070
E070
E070
E070
E070
E070
E070
E070
E070
FFF0
FFF0
FFF0
0E00
0E00
0E00
0E00
0E00
0E00
0E00
0E00
0E00
0E00
0E00
0E00
0E00
0E00
0E00
ENDCHAR
STARTCHAR 005A
ENCODING 90
SWIDTH 421 0
DWIDTH 16 0
BBX 12 33 2 0
BITMAP
FFF0
FFF0
FFF0
0070
0070
0070
0070
0070
0070
0070
0070
0070
0070
0070
0070
FFF0
FFF0
FFF0
E000
E000
E000
E000
E000
E000
E000
E000
E000
E000
E000
E000
FFF0
FFF0
FFF0
ENDCHAR
STARTCHAR 005B
ENCODING 91
SWIDTH 263 0
DWIDTH 10 0
BBX 6 33 2 0
BITMAP
FC
FC
FC
E0
E0
E0
E0
E0
E0
E0
E0
E0
E0
E0
E0
E0
E0
E0
E0
E0
E0
E0
E0
E0
E0
E0
E0
E0
E0
E0
FC
FC
FC
ENDCHAR
STARTCHAR 005C
ENCODING 92
SWIDTH 421 0
DWIDTH 16 0
BBX 12 33 2 0
BITMAP
FE00
FE00
FE00
0E00
0E00
0E00
0E00
0E00
0E00
0E00
0E00
0E00
0E00
0E00
0E00
0E00
0E00
0E00
0E00
0E00
0E00
0E00
0E00
0E00
0E00
0E00
0E00
0E00
0E00
0E00
0FF0
0FF0
0FF0
ENDCHAR
STARTCHAR 005D
ENCODING 93
SWIDTH 263 0
DWIDTH 10 0
BBX 6 33 2 0
BITMAP
FC
FC
FC
1C
1C
1C
1C
1C
1C
1C
1C
1C
1C
1C
1C
1C
1C
1C
1C
1C
1C
1C
1C
1C
1C
1C
1C
1C
1C
1C
FC
FC
FC
ENDCHAR
STARTCHAR 005E
ENCODING 94
SWIDTH 578 0
DWIDTH 22 0
BBX 18 12 2 20
BITMAP
FFFFC0
FFFFC0
FFFFC0
E001C0
E001C0
E001C0
E001C0
E001C0
E001C0
E001C0
E001C0
E001C0
ENDCHAR
STARTCHAR 005F
ENCODING 95
SWIDTH 421 0
DWIDTH 16 0
BBX 12 3 2 0
BITMAP
FFF0
FFF0
FFF0
ENDCHAR
STARTCHAR 0060
ENCODING 96
SWIDTH 184 0
DWIDTH 7 0
BBX 3 9 2 23
BITMAP
E0
E0
E0
E0
E0
E0
E0
E0
E0
ENDCHAR
STARTCHAR 0061
ENCODING 97
SWIDTH 421 0
DWIDTH 16 0
BBX 12 18 2 0
BITMAP
FF80
FF80
FF80
E380
E380
E380
E380
E380
E380
E380
E380
E380
E380
E380
E380
FFF0
FFF0
FFF0
ENDCHAR
STARTCHAR 0062
ENCODING 98
SWIDTH 421 0
DWIDTH 16 0
BBX 12 33 2 0
BITMAP
E000
E000
E000
E000
E000
E000
E000
E000
E000
E000
E000
E000
E000
E000
E000
FFF0
FFF0
FFF0
E070
E070
E070
E070
E070
E070
E070
E070
E070
E070
E070
E070
FFF0
FFF0
FFF0
ENDCHAR
STARTCHAR 0063
ENCODING 99
SWIDTH 421 0
DWIDTH 16 0
BBX 12 18 2 0
BITMAP
FFF0
FFF0
FFF0
E000
E000
E000
E000
E000
E000
E000
E000
E000
E000
E000
E000
FFF0
FFF0
FFF0
ENDCHAR
STARTCHAR 0064
ENCODING 100
SWIDTH 421 0
DWIDTH 16 0
BBX 12 33 2 0
BITMAP
0070
0070
0070
0070
0070
0070
0070
0070
0070
0070
0070
0070
0070
0070
0070
FFF0
FFF0
FFF0
E070
E070
E070
E070
E070
E070
E070
E070
E070
E070
E070
E070
FFF0
FFF0
FFF0
ENDCHAR
STARTCHAR 0065
ENCODING 101
SWIDTH 421 0
DWIDTH 16 0
BBX 12 18 2 0
BITMAP
FFF0
FFF0
FFF0
E070
E070
E070
E070
E070
FFF0
FFF0
FFF0
E000
E000
E000
E000
FFF0
FFF0
FFF0
ENDCHAR
STARTCHAR 0066
ENCODING 102
SWIDTH 421 0
DWIDTH 16 0
BBX 12 33 2 0
BITMAP
0FF0
0FF0
0FF0
0E00
0E00
0E00
0E00
0E00
0E00
0E00
0E00
0E00
0E00
0E00
0E00
7FC0
7FC0
7FC0
0E00
0E00
0E00
0E00
0E00
0E00
0E00
0E00
0E00
0E00
0E00
0E00
FE00
FE00
FE00
ENDCHAR
STARTCHAR 0067
ENCODING 103
SWIDTH 421 0
DWIDTH 16 0
BBX 12 33 2 -15
BITMAP
FFF0
FFF0
FFF0
E070
E070
E070
E070
E070
E070
E070
E070
E070
E070
E070
E070
FFF0
FFF0
FFF0
0070
0070
0070
0070
0070
0070
0070
0070
0070
0070
0070
0070
1FF0
1FF0
1FF0
ENDCHAR
STARTCHAR 0068
ENCODING 104
SWIDTH 421 0
DWIDTH 16 0
BBX 12 33 2 0
BITMAP
E000
E000
E000
E000
E000
E000
E000
E000
E000
E000
E000
E000
E000
E000
E000
FFF0
FFF0
FFF0
E070
E070
E070
E070
E070
E070
E070
E070
E070
E070
E070
E070
E070
E070
E070
ENDCHAR
STARTCHAR 0069
ENCODING 105
SWIDTH 421 0
DWIDTH 16 0
BBX 12 18 2 0
BITMAP
0E00
0E00
0E00
0000
0000
FE00
FE00
FE00
0E00
0E00
0E00
0E00
0E00
0E00
0E00
0FF0
0FF0
0FF0
ENDCHAR
STARTCHAR 006A
ENCODING 106
SWIDTH 421 0
DWIDTH 16 0
BBX 12 33 2 -15
BITMAP
0E00
0E00
0E00
0000
0000
0FF0
0FF0
0FF0
0E00
0E00
0E00
0E00
0E00
0E00
0E00
0E00
0E00
0E00
0E00
0E00
0E00
0E00
0E00
0E00
0E00
0E00
0E00
0E00
0E00
0E00
FE00
FE00
FE00
ENDCHAR
STARTCHAR 006B
ENCODING 107
SWIDTH 421 0
DWIDTH 16 0
BBX 12 33 2 0
BITMAP
E000
E000
E000
E000
E000
E000
E000
E000
E000
E000
E000
E000
E000
E000
E000
E380
E380
E380
E380
E380
E380
E380
E380
FFF0
FFF0
FFF0
E070
E070
E070
E070
E070
E070
E070
ENDCHAR
STARTCHAR 006C
ENCODING 108
SWIDTH 421 0
DWIDTH 16 0
BBX 12 33 2 0
BITMAP
FE00
FE00
FE00
0E00
0E00
0E00
0E00
0E00
0E00
0E00
0E00
0E00
0E00
0E00
0E00
0E00
0E00
0E00
0E00
0E00
0E00
0E00
0E00
0E00
0E00
0E00
0E00
0E00
0E00
0E00
0FF0
0FF0
0FF0
ENDCHAR
STARTCHAR 006D
ENCODING 109
SWIDTH 421 0
DWIDTH 16 0
BBX 12 18 2 0
BITMAP
FFF0
FFF0
FFF0
EE70
EE70
EE70
EE70
EE70
EE70
E070
E070
E070
E070
E070
E070
E070
E070
E070
ENDCHAR
STARTCHAR 006E
ENCODING 110
SWIDTH 421 0
DWIDTH 16 0
BBX 12 18 2 0
BITMAP
FFF0
FFF0
FFF0
E070
E070
E070
E070
E070
E070
E070
E070
E070
E070
E070
E070
E070
E070
E070
ENDCHAR
STARTCHAR 006F
ENCODING 111
SWIDTH 421 0
DWIDTH 16 0
BBX 12 18 2 0
BITMAP
FFF0
FFF0
FFF0
E070
E070
E070
E070
E070
E070
E070
E070
E070
E070
E070
E070
FFF0
FFF0
FFF0
ENDCHAR
STARTCHAR 0070
ENCODING 112
SWIDTH 421 0
DWIDTH 16 0
BBX 12 33 2 -15
BITMAP
FFF0
FFF0
FFF0
E070
E070
E070
E070
E070
E070
E070
E070
E070
E070
E070
E070
FFF0
FFF0
FFF0
E000
E000
E000
E000
E000
E000
E000
E000
E000
E000
E000
E000
E000
E000
E000
ENDCHAR
STARTCHAR 0071
ENCODING 113
SWIDTH 421 0
DWIDTH 16 0
BBX 12 33 2 -15
BITMAP
FFF0
FFF0
FFF0
E070
E070
E070
E070
E070
E070
E070
E070
E070
E070
E070
E070
FFF0
FFF0
FFF0
0070
0070
0070
0070
0070
0070
0070
0070
0070
0070
0070
0070
0070
0070
0070
ENDCHAR
STARTCHAR 0072
ENCODING 114
SWIDTH 421 0
DWIDTH 16 0
BBX 12 18 2 0
BITMAP
FFF0
FFF0
FFF0
E000
E000
E000
E000
E000
E000
E000
E000
E000
E000
E000
E000
E000
E000
E000
ENDCHAR
STARTCHAR 0073
ENCODING 115
SWIDTH 421 0
DWIDTH 16 0
BBX 12 18 2 0
BITMAP
FFF0
FFF0
FFF0
E000
E000
E000
E000
E000
FFF0
FFF0
FFF0
0070
0070
0070
0070
FFF0
FFF0
FFF0
ENDCHAR
STARTCHAR 0074
ENCODING 116
SWIDTH 421 0
DWIDTH 16 0
BBX 12 33 2 0
BITMAP
0E00
0E00
0E00
0E00
0E00
0E00
0E00
0E00
0E00
0E00
0E00
0E00
0E00
0E00
0E00
FFF0
FFF0
FFF0
0E00
0E00
0E00
0E00
0E00
0E00
0E00
0E00
0E00
0E00
0E00
0E00
0E00
0E00
0E00
ENDCHAR
STARTCHAR 0075
ENCODING 117
SWIDTH 421 0
DWIDTH 16 0
BBX 12 18 2 0
BITMAP
E070
E070
E070
E070
E070
E070
E070
E070
E070
E070
E070
E070
E070
E070
E070
FFF0
FFF0
FFF0
ENDCHAR
STARTCHAR 0076
ENCODING 118
SWIDTH 421 0
DWIDTH 16 0
BBX 12 18 2 0
BITMAP
E380
E380
E380
E380
E380
E380
E380
E380
E380
E380
E380
E380
E380
E380
E380
FFF0
FFF0
FFF0
ENDCHAR
STARTCHAR 0077
ENCODING 119
SWIDTH 421 0
DWIDTH 16 0
BBX 12 18 2 0
BITMAP
EE70
EE70
EE70
EE70
EE70
EE70
EE70
EE70
EE70
EE70
EE70
EE70
EE70
EE70
EE70
FFF0
FFF0
FFF0
ENDCHAR
STARTCHAR 0078
ENCODING 120
SWIDTH 421 0
DWIDTH 16 0
BBX 12 18 2 0
BITMAP
E070
E070
E070
E070
E070
FFF0
FFF0
FFF0
0E00
0E00
0E00
FFF0
FFF0
FFF0
E070
E070
E070
E070
ENDCHAR
STARTCHAR 0079
ENCODING 121
SWIDTH 421 0
DWIDTH 16 0
BBX 12 33 2 -15
BITMAP
E070
E070
E070
E070
E070
E070
E070
E070
E070
E070
E070
E070
E070
E070
E070
FFF0
FFF0
FFF0
0070
0070
0070
0070
0070
0070
0070
0070
0070
0070
0070
0070
0070
0070
0070
ENDCHAR
STARTCHAR 007A
ENCODING 122
SWIDTH 421 0
DWIDTH 16 0
BBX 12 18 2 0
BITMAP
FFF0
FFF0
FFF0
0070
0070
0070
0070
0070
FFF0
FFF0
FFF0
E000
E000
E000
E000
FFF0
FFF0
FFF0
ENDCHAR
STARTCHAR 007B
ENCODING 123
SWIDTH 342 0
DWIDTH 13 0
BBX 9 33 2 0
BITMAP
1F80
1F80
1F80
1C00
1C00
1C00
1C00
1C00
1C00
1C00
1C00
1C00
1C00
1C00
FC00
FC00
FC00
FC00
1C00
1C00
1C00
1C00
1C00
1C00
1C00
1C00
1C00
1C00
1C00
1C00
1F80
1F80
1F80
ENDCHAR
STARTCHAR 007C
ENCODING 124
SWIDTH 184 0
DWIDTH 7 0
BBX 3 33 2 0
BITMAP
E0
E0
E0
E0
E0
E0
E0
E0
E0
E0
E0
E0
E0
E0
E0
E0
E0
E0
E0
E0
E0
E0
E0
E0
E0
E0
E0
E0
E0
E0
E0
E0
E0
ENDCHAR
STARTCHAR 007D
ENCODING 125
SWIDTH 342 0
DWIDTH 13 0
BBX 9 33 2 0
BITMAP
FC00
FC00
FC00
1C00
1C00
1C00
1C00
1C00
1C00
1C00
1C00
1C00
1C00
1C00
1F80
1F80
1F80
1F80
1C00
1C00
1C00
1C00
1C00
1C00
1C00
1C00
1C00
1C00
1C00
1C00
FC00
FC00
FC00
ENDCHAR
STARTCHAR 007E
ENCODING 126
SWIDTH 421 0
DWIDTH 16 0
BBX 12 9 2 11
BITMAP
0070
0070
0070
FFF0
FFF0
FFF0
E000
E000
E000
ENDCHAR
STARTCHAR 00A0
ENCODING 160
SWIDTH 421 0
DWIDTH 16 0
BBX 0 0 0 0
BITMAP
ENDCHAR
STARTCHAR 00A2
ENCODING 162
SWIDTH 421 0
DWIDTH 16 0
BBX 12 24 2 0
BITMAP
0E00
0E00
0E00
FFF0
FFF0
FFF0
E000
E000
E000
E000
E000
E000
E000
E000
E000
E000
E000
E000
FFF0
FFF0
FFF0
0E00
0E00
0E00
ENDCHAR
STARTCHAR 00A6
ENCODING 166
SWIDTH 184 0
DWIDTH 7 0
BBX 3 33 2 0
BITMAP
E0
E0
E0
E0
E0
E0
E0
E0
E0
E0
E0
E0
E0
E0
E0
00
00
00
E0
E0
E0
E0
E0
E0
E0
E0
E0
E0
E0
E0
E0
E0
E0
ENDCHAR
STARTCHAR 00A7
ENCODING 167
SWIDTH 421 0
DWIDTH 16 0
BBX 12 48 2 -16
BITMAP
FFF0
FFF0
FFF0
E000
E000
E000
E000
E000
E000
E000
E000
E000
E000
E000
E000
FFF0
FFF0
FFF0
E070
E070
E070
E070
E070
E070
E070
E070
E070
E070
E070
E070
FFF0
FFF0
FFF0
0070
0070
0070
0070
0070
0070
0070
0070
0070
0070
0070
0070
FFF0
FFF0
FFF0
ENDCHAR
STARTCHAR 00A9
ENCODING 169
SWIDTH 657 0
DWIDTH 25 0
BBX 21 24 2 5
BITMAP
FFFFF8
FFFFF8
FFFFF8
EFFF38
EFFF38
EFFF38
EE0038
EE0038
EE0038
EE0038
EE0038
EE0038
EE0038
EE0038
EE0038
EE0038
EE0038
EE0038
EFFF38
EFFF38
EFFF38
FFFFF8
FFFFF8
FFFFF8
ENDCHAR
STARTCHAR 00AD
ENCODING 173
SWIDTH 263 0
DWIDTH 10 0
BBX 6 3 2 14
BITMAP
FC
FC
FC
ENDCHAR
STARTCHAR 00AE
ENCODING 174
SWIDTH 657 0
DWIDTH 25 0
BBX 21 24 2 5
BITMAP
FFFFF8
FFFFF8
FFFFF8
EFFF38
EFFF38
EFFF38
EE0038
EE0038
EE0038
EE0038
EE0038
EE0038
EE0038
EE0038
EE0038
EE0038
EE0038
EE0038
EE0038
EE0038
EE0038
FFFFF8
FFFFF8
FFFFF8
ENDCHAR
STARTCHAR 00B0
ENCODING 176
SWIDTH 342 0
DWIDTH 13 0
BBX 9 9 2 23
BITMAP
FF80
FF80
FF80
E380
E380
E380
FF80
FF80
FF80
ENDCHAR
STARTCHAR 00B1
ENCODING 177
SWIDTH 421 0
DWIDTH 16 0
BBX 12 15 2 8
BITMAP
0E00
0E00
0E00
0E00
FFF0
FFF0
FFF0
0E00
0E00
0E00
0E00
0E00
FFF0
FFF0
FFF0
ENDCHAR
STARTCHAR 00D7
ENCODING 215
SWIDTH 421 0
DWIDTH 16 0
BBX 12 18 2 8
BITMAP
E070
E070
E070
E070
FFF0
FFF0
FFF0
0E00
0E00
0E00
FFF0
FFF0
FFF0
E070
E070
E070
E070
E070
ENDCHAR
STARTCHAR 00F7
ENCODING 247
SWIDTH 421 0
DWIDTH 16 0
BBX 12 15 2 8
BITMAP
0E00
0E00
0E00
0000
0000
0000
FFF0
FFF0
FFF0
0000
0000
0000
0E00
0E00
0E00
ENDCHAR
STARTCHAR 037E
ENCODING 894
SWIDTH 184 0
DWIDTH 7 0
BBX 3 39 2 -6
BITMAP
E0
E0
E0
00
00
00
00
00
00
00
00
00
00
00
00
00
00
00
00
00
00
00
00
00
00
00
00
00
00
00
E0
E0
E0
E0
E0
E0
E0
E0
E0
ENDCHAR
STARTCHAR 2013
ENCODING 8211
SWIDTH 342 0
DWIDTH 13 0
BBX 9 3 2 14
BITMAP
FF80
FF80
FF80
ENDCHAR
STARTCHAR 2014
ENCODING 8212
SWIDTH 421 0
DWIDTH 16 0
BBX 12 3 2 14
BITMAP
FFF0
FFF0
FFF0
ENDCHAR
STARTCHAR 2018
ENCODING 8216
SWIDTH 184 0
DWIDTH 7 0
BBX 3 9 2 23
BITMAP
E0
E0
E0
E0
E0
E0
E0
E0
E0
ENDCHAR
STARTCHAR 2019
ENCODING 8217
SWIDTH 184 0
DWIDTH 7 0
BBX 3 9 2 23
BITMAP
E0
E0
E0
E0
E0
E0
E0
E0
E0
ENDCHAR
STARTCHAR 201C
ENCODING 8220
SWIDTH 342 0
DWIDTH 13 0
BBX 9 9 2 23
BITMAP
E380
E380
E380
E380
E380
E380
E380
E380
E380
ENDCHAR
STARTCHAR 201D
ENCODING 8221
SWIDTH 342 0
DWIDTH 13 0
BBX 9 9 2 23
BITMAP
E380
E380
E380
E380
E380
E380
E380
E380
E380
ENDCHAR
STARTCHAR 2020
ENCODING 8224
SWIDTH 421 0
DWIDTH 16 0
BBX 12 33 2 0
BITMAP
0E00
0E00
0E00
0E00
0E00
0E00
0E00
0E00
0E00
0E00
0E00
0E00
0E00
0E00
0E00
FFF0
FFF0
FFF0
0E00
0E00
0E00
0E00
0E00
0E00
0E00
0E00
0E00
0E00
0E00
0E00
0E00
0E00
0E00
ENDCHAR
STARTCHAR 2021
ENCODING 8225
SWIDTH 421 0
DWIDTH 16 0
BBX 12 33 2 0
BITMAP
FFF0
FFF0
FFF0
0E00
0E00
0E00
0E00
0E00
0E00
0E00
0E00
0E00
0E00
0E00
0E00
FFF0
FFF0
FFF0
0E00
0E00
0E00
0E00
0E00
0E00
0E00
0E00
0E00
0E00
0E00
0E00
0E00
0E00
0E00
ENDCHAR
STARTCHAR 2022
ENCODING 8226
SWIDTH 184 0
DWIDTH 7 0
BBX 3 3 2 14
BITMAP
E0
E0
E0
ENDCHAR
STARTCHAR 2026
ENCODING 8230
SWIDTH 421 0
DWIDTH 16 0
BBX 12 3 2 0
BITMAP
EE70
EE70
EE70
ENDCHAR
STARTCHAR 2044
ENCODING 8260
SWIDTH 421 0
DWIDTH 16 0
BBX 12 33 2 0
BITMAP
0FF0
0FF0
0FF0
0E00
0E00
0E00
0E00
0E00
0E00
0E00
0E00
0E00
0E00
0E00
0E00
0E00
0E00
0E00
0E00
0E00
0E00
0E00
0E00
0E00
0E00
0E00
0E00
0E00
0E00
0E00
FE00
FE00
FE00
ENDCHAR
STARTCHAR 2212
ENCODING 8722
SWIDTH 421 0
DWIDTH 16 0
BBX 12 3 2 14
BITMAP
FFF0
FFF0
FFF0
ENDCHAR
STARTCHAR 2215
ENCODING 8725
SWIDTH 421 0
DWIDTH 16 0
BBX 12 33 2 0
BITMAP
0FF0
0FF0
0FF0
0E00
0E00
0E00
0E00
0E00
0E00
0E00
0E00
0E00
0E00
0E00
0E00
0E00
0E00
0E00
0E00
0E00
0E00
0E00
0E00
0E00
0E00
0E00
0E00
0E00
0E00
0E00
FE00
FE00
FE00
ENDCHAR
STARTCHAR 221A
ENCODING 8730
SWIDTH 421 0
DWIDTH 16 0
BBX 12 33 2 0
BITMAP
0070
0070
0070
0070
0070
0070
0070
0070
0070
0070
0070
0070
0070
0070
0070
E070
E070
E070
E070
E070
E070
E070
E070
E070
E070
E070
E070
E070
E070
E070
FFF0
FFF0
FFF0
ENDCHAR
STARTCHAR 2248
ENCODING 8776
SWIDTH 421 0
DWIDTH 16 0
BBX 12 18 2 8
BITMAP
0070
0070
0070
FFF0
FFF0
FFF0
E000
E000
E000
0070
0070
0070
FFF0
FFF0
FFF0
E000
E000
E000
ENDCHAR
STARTCHAR 2264
ENCODING 8804
SWIDTH 421 0
DWIDTH 16 0
BBX 12 24 2 5
BITMAP
FFF0
FFF0
FFF0
E000
E000
E000
E000
E000
E000
E000
E000
E000
E000
E000
E000
FFF0
FFF0
FFF0
0000
0000
0000
FFF0
FFF0
FFF0
ENDCHAR
STARTCHAR 2265
ENCODING 8805
SWIDTH 421 0
DWIDTH 16 0
BBX 12 24 2 5
BITMAP
FFF0
FFF0
FFF0
0070
0070
0070
0070
0070
0070
0070
0070
0070
0070
0070
0070
FFF0
FFF0
FFF0
0000
0000
0000
FFF0
FFF0
FFF0
ENDCHAR
ENDFONT
